<!-- Generated by IcoMoon.io -->
<svg version="1.1" xmlns="http://www.w3.org/2000/svg" width="60" height="60" viewBox="0 0 60 60" fill="#ffffff">
<title>sad</title>
<path d="M30 60c16.569 0 30-13.431 30-30s-13.431-30-30-30-30 13.431-30 30 13.431 30 30 30zM30 5.625c13.462 0 24.375 10.913 24.375 24.375s-10.913 24.375-24.375 24.375-24.375-10.913-24.375-24.375 10.913-24.375 24.375-24.375zM15 18.75c0-2.071 1.679-3.75 3.75-3.75s3.75 1.679 3.75 3.75c0 2.071-1.679 3.75-3.75 3.75s-3.75-1.679-3.75-3.75zM37.5 18.75c0-2.071 1.679-3.75 3.75-3.75s3.75 1.679 3.75 3.75c0 2.071-1.679 3.75-3.75 3.75s-3.75-1.679-3.75-3.75zM18.744 45.746l-4.824-2.894c3.279-5.453 9.253-9.102 16.080-9.102s12.801 3.649 16.080 9.102l-4.824 2.894c-2.295-3.817-6.477-6.371-11.256-6.371s-8.96 2.554-11.256 6.371z"></path>
</svg>
